<svg xmlns="http://www.w3.org/2000/svg" xmlns:xlink="http://www.w3.org/1999/xlink" width="420" zoomAndPan="magnify" viewBox="0 0 315 80.999996" height="108" preserveAspectRatio="xMidYMid meet" version="1.0"><defs><g/><clipPath id="955f6d8b36"><path d="M 135.117188 20.394531 L 170.367188 20.394531 L 170.367188 60.894531 L 135.117188 60.894531 Z M 135.117188 20.394531 " clip-rule="nonzero"/></clipPath></defs><g clip-path="url(#955f6d8b36)"><path fill="#38a3a5" d="M 135.285156 51.316406 C 135.59375 52.269531 135.128906 53.3125 136.683594 53.167969 C 136.679688 52.660156 136.609375 52.664062 137.039062 52.386719 C 137.492188 52.234375 138.445312 52.777344 139.132812 52.972656 C 138.933594 54.359375 140.136719 52.992188 139.960938 53.800781 C 140.285156 53.925781 140.273438 53.234375 140.449219 53.703125 C 141.332031 52.988281 142.46875 52.769531 143.078125 51.609375 C 143.355469 51.453125 144.960938 51.585938 144.929688 51.21875 C 143.96875 50.445312 144.621094 49.824219 145.804688 49.710938 C 146.09375 49.914062 145.355469 50.90625 146.195312 50.390625 C 147.136719 50.898438 147.019531 49.871094 147.851562 49.417969 C 148.085938 49.332031 148.421875 49.625 148.582031 49.757812 C 148.785156 50.441406 148.109375 49.851562 148.484375 50.585938 C 148.125 50.53125 147.796875 50.226562 148.09375 50.832031 C 149.136719 50.476562 149.269531 51.351562 150.042969 50.292969 C 150.082031 50.058594 150.101562 49.675781 150.382812 49.613281 C 150.324219 50.300781 150.898438 49.382812 150.917969 50.488281 C 150.242188 51.21875 151.34375 51.25 151.128906 52.164062 C 151.339844 52.207031 151.640625 52.175781 151.792969 52 C 152.914062 52.433594 151.160156 52.921875 153.0625 52.875 C 152.894531 52.433594 153.613281 52.914062 153.742188 52.875 C 153.929688 52.707031 154.453125 52.222656 154.714844 52.386719 C 154.917969 52.632812 155.074219 53.175781 155.007812 53.492188 C 155.25 53.609375 155.980469 53.636719 155.933594 53.996094 C 156.390625 54.035156 157.023438 53.769531 157.003906 54.484375 C 157.359375 54.265625 157.511719 54.277344 157.734375 54.628906 C 157.734375 54.628906 157.296875 54.96875 157.296875 54.96875 C 157.761719 55.675781 157.019531 54.949219 157.25 55.796875 C 156.972656 55.617188 156.910156 55.976562 156.808594 56.136719 C 157.324219 56.367188 156.6875 56.984375 156.46875 57.210938 C 157.328125 57.082031 156.214844 58.671875 155.789062 58.476562 C 155.820312 59.851562 156.441406 58.75 156.226562 60.230469 C 156.632812 59.808594 156.5625 60.4375 156.90625 59.742188 C 157.34375 60.46875 157.605469 59.761719 157.605469 60.230469 C 157.902344 59.894531 157.96875 59.929688 158.242188 60.230469 C 158.527344 59.875 159.335938 60.601562 159.214844 59.941406 C 159.195312 59.9375 158.757812 59.597656 158.757812 59.597656 C 158.980469 59.054688 159.273438 60.023438 159.246094 58.574219 C 159.539062 58.722656 159.703125 59.066406 159.878906 58.476562 C 159.550781 58.230469 159.828125 58 159.925781 57.746094 C 159.351562 57.804688 158.847656 57.476562 159.195312 56.867188 C 158.359375 57.0625 158.859375 56.703125 158.125 57.0625 C 158.351562 56.53125 157.316406 55.957031 158.222656 55.699219 C 158.222656 55.699219 158.464844 56.1875 158.515625 56.1875 C 158.628906 55.300781 161.078125 54.574219 160.269531 54.140625 C 160.386719 54 160.820312 54.167969 160.460938 53.847656 C 159.4375 54.648438 159.734375 53.796875 159.683594 53.117188 C 160.164062 52.289062 161.152344 51.863281 161.046875 50.886719 C 160.953125 50.167969 160.980469 48.546875 159.828125 47.910156 C 160.15625 47.144531 160.085938 47.207031 159.34375 46.984375 C 159.15625 45.945312 159.667969 46.425781 158.515625 45.863281 C 159.617188 45.613281 157.929688 44.769531 158.804688 44.546875 C 158.929688 44.921875 159.457031 44.234375 159.585938 44.160156 C 159.796875 44.34375 160.660156 44.777344 160.511719 44.207031 C 160.363281 43.992188 160.1875 43.726562 159.886719 43.816406 C 159.886719 43.816406 160.460938 43.574219 160.460938 43.574219 C 161.011719 44.050781 160.609375 44.207031 161.535156 44.011719 C 161.617188 44.347656 161.917969 44.394531 162.214844 44.351562 C 162.085938 44.628906 162.5625 44.628906 162.703125 44.695312 C 162.742188 44.46875 162.753906 44.207031 162.460938 44.160156 C 162.476562 43.691406 162.839844 44.335938 163.042969 44.160156 C 163.710938 44.609375 164.84375 42.769531 165.480469 43.71875 C 168.445312 41.503906 163.625 41.933594 165.769531 40.945312 C 165.675781 40.1875 166.21875 40.445312 166.714844 40.410156 C 166.714844 40.410156 167.183594 39.628906 167.183594 39.628906 C 167.59375 39.753906 167.789062 39.121094 167.914062 38.851562 C 168.113281 38.894531 168.542969 38.839844 168.644531 38.605469 C 167.804688 38.015625 168.886719 37.03125 168.546875 36.269531 C 168.277344 36.453125 167.933594 35.375 167.863281 35.296875 C 167.503906 35.898438 167.316406 35.757812 166.746094 35.585938 C 166.785156 35.171875 166 35.648438 165.332031 35.003906 C 165.40625 34.644531 164.871094 33.910156 165.496094 34.078125 C 165.359375 33.785156 165.898438 33.90625 165.988281 33.882812 C 165.085938 33.492188 165.832031 33.246094 165.382812 32.859375 C 166.351562 32.355469 167.464844 32.621094 168.402344 32.859375 C 168.789062 30.8125 168.417969 29.863281 169.765625 27.894531 C 170.390625 27.046875 169.125 25.097656 170.054688 24.726562 C 169.839844 24.652344 169.921875 23.875 169.910156 23.703125 C 169.289062 23.835938 168.390625 23.484375 168.839844 22.78125 C 168.839844 22.78125 169.132812 22.730469 169.132812 22.730469 C 167.929688 22.605469 167.46875 21.90625 167.328125 20.683594 C 167.101562 20.945312 166.480469 20.476562 166.304688 20.394531 C 164.949219 20.492188 163.152344 20.828125 161.828125 21.417969 C 160.867188 20.835938 159.503906 21.414062 158.417969 21.417969 C 156.230469 22.035156 153.417969 23.722656 153.449219 26.285156 C 153.058594 26.117188 153.734375 27.007812 153.695312 27.066406 C 153.445312 27.550781 153.773438 28.15625 153.644531 28.671875 C 152.355469 29.398438 154.316406 29.597656 154.8125 29.839844 C 155.476562 29.792969 155.769531 29.203125 156.421875 29.839844 C 155.433594 29.878906 155.101562 31.820312 155.496094 32.472656 C 156.050781 33.496094 153.835938 33.6875 153.9375 34.664062 C 153.214844 35.375 150.832031 36.019531 151.257812 37.195312 C 150.925781 37.296875 150.289062 37.320312 150.140625 36.902344 C 149.984375 37.324219 149.582031 36.964844 149.796875 36.660156 C 150.253906 36.695312 150.609375 36.089844 150.527344 35.636719 C 150.941406 34.820312 150.71875 34.613281 150.382812 33.640625 C 150.265625 33.355469 150.171875 32.898438 150.527344 32.714844 C 151.605469 32.753906 150.84375 33.5 152.183594 32.519531 C 152.238281 32.386719 152.292969 32.042969 152.523438 32.128906 C 153.039062 31.695312 152.523438 30.847656 151.890625 31.011719 C 151.070312 31.707031 150.941406 30.195312 151.113281 29.695312 C 150.492188 28.230469 150.257812 28.027344 148.921875 29.0625 C 148.101562 29.210938 148.082031 27.171875 147.460938 28.136719 C 146.628906 33.308594 145.917969 39.039062 141.617188 42.601562 C 140.996094 42.027344 140.261719 42.636719 140.835938 43.332031 C 142.207031 43.582031 140.84375 43.382812 141.566406 44.351562 C 140.980469 45.085938 141.707031 43.921875 140.351562 44.546875 C 139.96875 44.71875 139.644531 44.816406 139.765625 45.375 C 139.335938 46.433594 138.109375 45.5 138.160156 46.789062 C 138.632812 47.457031 139.785156 45.859375 139.960938 47.617188 C 140.832031 47.433594 140.3125 47.902344 141.082031 47.8125 C 141.382812 48.199219 140.328125 48.316406 141.226562 48.492188 C 141.851562 49.488281 142.382812 48.769531 142.6875 49.515625 C 143.03125 49.585938 142.960938 50.085938 142.980469 50.34375 C 142.476562 49.96875 142.414062 50.816406 141.859375 50.195312 C 141.390625 49.007812 140.3125 49.265625 139.765625 48.054688 C 138.476562 48.019531 136.632812 47.855469 135.871094 49.078125 C 136.585938 49.597656 137.085938 50.910156 138.0625 50.003906 C 138.390625 50.480469 138.832031 50.824219 139.328125 51.121094 C 140.644531 51.117188 139.859375 50.359375 140.738281 50.003906 C 142.074219 51.378906 142.167969 50.589844 143.222656 51.171875 C 142.441406 51.238281 141.5625 51.902344 141.128906 50.878906 C 140.273438 50.800781 141.019531 51.285156 139.71875 51.851562 C 138.203125 51.660156 136.738281 50.214844 135.285156 51.316406 " fill-opacity="1" fill-rule="nonzero"/></g><g fill="#ffffff" fill-opacity="1"><g transform="translate(173.607033, 50.113756)"><g><path d="M 11.765625 0.4375 C 9.679688 0.4375 7.804688 0.00390625 6.140625 -0.859375 C 4.472656 -1.734375 3.164062 -2.941406 2.21875 -4.484375 C 1.28125 -6.023438 0.8125 -7.769531 0.8125 -9.71875 C 0.8125 -11.664062 1.28125 -13.410156 2.21875 -14.953125 C 3.164062 -16.492188 4.472656 -17.695312 6.140625 -18.5625 C 7.804688 -19.4375 9.679688 -19.875 11.765625 -19.875 C 13.859375 -19.875 15.738281 -19.4375 17.40625 -18.5625 C 19.070312 -17.695312 20.375 -16.492188 21.3125 -14.953125 C 22.257812 -13.410156 22.734375 -11.664062 22.734375 -9.71875 C 22.734375 -7.769531 22.257812 -6.023438 21.3125 -4.484375 C 20.375 -2.941406 19.070312 -1.734375 17.40625 -0.859375 C 15.738281 0.00390625 13.859375 0.4375 11.765625 0.4375 Z M 11.765625 -4.859375 C 12.585938 -4.859375 13.328125 -5.054688 13.984375 -5.453125 C 14.640625 -5.847656 15.160156 -6.410156 15.546875 -7.140625 C 15.929688 -7.878906 16.125 -8.738281 16.125 -9.71875 C 16.125 -10.695312 15.929688 -11.550781 15.546875 -12.28125 C 15.160156 -13.019531 14.640625 -13.585938 13.984375 -13.984375 C 13.328125 -14.378906 12.585938 -14.578125 11.765625 -14.578125 C 10.953125 -14.578125 10.21875 -14.378906 9.5625 -13.984375 C 8.90625 -13.585938 8.378906 -13.019531 7.984375 -12.28125 C 7.597656 -11.550781 7.40625 -10.695312 7.40625 -9.71875 C 7.40625 -8.738281 7.597656 -7.878906 7.984375 -7.140625 C 8.378906 -6.410156 8.90625 -5.847656 9.5625 -5.453125 C 10.21875 -5.054688 10.953125 -4.859375 11.765625 -4.859375 Z M 11.765625 -4.859375 "/></g></g></g><g fill="#ffffff" fill-opacity="1"><g transform="translate(197.850066, 50.113756)"><g><path d="M 18.9375 0 L 18.875 -8.859375 L 14.65625 -1.75 L 11.765625 -1.75 L 7.546875 -8.546875 L 7.546875 0 L 1.578125 0 L 1.578125 -19.4375 L 6.96875 -19.4375 L 13.296875 -9.078125 L 19.46875 -19.4375 L 24.84375 -19.4375 L 24.90625 0 Z M 18.9375 0 "/></g></g></g><g fill="#ffffff" fill-opacity="1"><g transform="translate(225.036687, 50.113756)"><g><path d="M 9.90625 -4.890625 L 8.140625 -4.890625 L 8.140625 0 L 1.578125 0 L 1.578125 -19.4375 L 10.9375 -19.4375 C 12.738281 -19.4375 14.300781 -19.140625 15.625 -18.546875 C 16.957031 -17.953125 17.984375 -17.097656 18.703125 -15.984375 C 19.429688 -14.878906 19.796875 -13.585938 19.796875 -12.109375 C 19.796875 -10.710938 19.476562 -9.492188 18.84375 -8.453125 C 18.21875 -7.421875 17.3125 -6.601562 16.125 -6 L 20.21875 0 L 13.21875 0 Z M 13.1875 -12.109375 C 13.1875 -12.828125 12.960938 -13.382812 12.515625 -13.78125 C 12.078125 -14.175781 11.410156 -14.375 10.515625 -14.375 L 8.140625 -14.375 L 8.140625 -9.828125 L 10.515625 -9.828125 C 11.410156 -9.828125 12.078125 -10.023438 12.515625 -10.421875 C 12.960938 -10.816406 13.1875 -11.378906 13.1875 -12.109375 Z M 13.1875 -12.109375 "/></g></g></g><g fill="#ffffff" fill-opacity="1"><g transform="translate(246.419436, 50.113756)"><g><path d="M 11.765625 0.4375 C 9.679688 0.4375 7.804688 0.00390625 6.140625 -0.859375 C 4.472656 -1.734375 3.164062 -2.941406 2.21875 -4.484375 C 1.28125 -6.023438 0.8125 -7.769531 0.8125 -9.71875 C 0.8125 -11.664062 1.28125 -13.410156 2.21875 -14.953125 C 3.164062 -16.492188 4.472656 -17.695312 6.140625 -18.5625 C 7.804688 -19.4375 9.679688 -19.875 11.765625 -19.875 C 13.859375 -19.875 15.738281 -19.4375 17.40625 -18.5625 C 19.070312 -17.695312 20.375 -16.492188 21.3125 -14.953125 C 22.257812 -13.410156 22.734375 -11.664062 22.734375 -9.71875 C 22.734375 -7.769531 22.257812 -6.023438 21.3125 -4.484375 C 20.375 -2.941406 19.070312 -1.734375 17.40625 -0.859375 C 15.738281 0.00390625 13.859375 0.4375 11.765625 0.4375 Z M 11.765625 -4.859375 C 12.585938 -4.859375 13.328125 -5.054688 13.984375 -5.453125 C 14.640625 -5.847656 15.160156 -6.410156 15.546875 -7.140625 C 15.929688 -7.878906 16.125 -8.738281 16.125 -9.71875 C 16.125 -10.695312 15.929688 -11.550781 15.546875 -12.28125 C 15.160156 -13.019531 14.640625 -13.585938 13.984375 -13.984375 C 13.328125 -14.378906 12.585938 -14.578125 11.765625 -14.578125 C 10.953125 -14.578125 10.21875 -14.378906 9.5625 -13.984375 C 8.90625 -13.585938 8.378906 -13.019531 7.984375 -12.28125 C 7.597656 -11.550781 7.40625 -10.695312 7.40625 -9.71875 C 7.40625 -8.738281 7.597656 -7.878906 7.984375 -7.140625 C 8.378906 -6.410156 8.90625 -5.847656 9.5625 -5.453125 C 10.21875 -5.054688 10.953125 -4.859375 11.765625 -4.859375 Z M 11.765625 -4.859375 "/></g></g></g><g fill="#ffffff" fill-opacity="1"><g transform="translate(270.662466, 50.113756)"><g><path d="M 17.734375 -4.9375 L 17.734375 0 L 1.578125 0 L 1.578125 -19.4375 L 17.375 -19.4375 L 17.375 -14.5 L 8.03125 -14.5 L 8.03125 -12.21875 L 16.25 -12.21875 L 16.25 -7.5 L 8.03125 -7.5 L 8.03125 -4.9375 Z M 17.734375 -4.9375 "/></g></g></g><g fill="#ffffff" fill-opacity="1"><g transform="translate(290.045797, 50.113756)"><g><path d="M 10.9375 -19.4375 C 12.738281 -19.4375 14.300781 -19.140625 15.625 -18.546875 C 16.957031 -17.953125 17.984375 -17.097656 18.703125 -15.984375 C 19.429688 -14.878906 19.796875 -13.585938 19.796875 -12.109375 C 19.796875 -10.628906 19.429688 -9.332031 18.703125 -8.21875 C 17.984375 -7.101562 16.957031 -6.25 15.625 -5.65625 C 14.300781 -5.070312 12.738281 -4.78125 10.9375 -4.78125 L 8.140625 -4.78125 L 8.140625 0 L 1.578125 0 L 1.578125 -19.4375 Z M 10.515625 -9.828125 C 11.410156 -9.828125 12.078125 -10.023438 12.515625 -10.421875 C 12.960938 -10.816406 13.1875 -11.378906 13.1875 -12.109375 C 13.1875 -12.828125 12.960938 -13.382812 12.515625 -13.78125 C 12.078125 -14.175781 11.410156 -14.375 10.515625 -14.375 L 8.140625 -14.375 L 8.140625 -9.828125 Z M 10.515625 -9.828125 "/></g></g></g><g fill="#ffffff" fill-opacity="1"><g transform="translate(3.508618, 50.113756)"><g><path d="M 20.734375 -19.4375 L 20.734375 0 L 15.359375 0 L 7.96875 -8.828125 L 7.96875 0 L 1.578125 0 L 1.578125 -19.4375 L 6.96875 -19.4375 L 14.359375 -10.609375 L 14.359375 -19.4375 Z M 20.734375 -19.4375 "/></g></g></g><g fill="#ffffff" fill-opacity="1"><g transform="translate(26.529784, 50.113756)"><g><path d="M 1.578125 -19.4375 L 8.140625 -19.4375 L 8.140625 0 L 1.578125 0 Z M 1.578125 -19.4375 "/></g></g></g><g fill="#ffffff" fill-opacity="1"><g transform="translate(36.943501, 50.113756)"><g><path d="M 17.734375 -4.9375 L 17.734375 0 L 1.578125 0 L 1.578125 -19.4375 L 17.375 -19.4375 L 17.375 -14.5 L 8.03125 -14.5 L 8.03125 -12.21875 L 16.25 -12.21875 L 16.25 -7.5 L 8.03125 -7.5 L 8.03125 -4.9375 Z M 17.734375 -4.9375 "/></g></g></g><g fill="#ffffff" fill-opacity="1"><g transform="translate(56.326836, 50.113756)"><g><path d="M 10.890625 0.4375 C 7.898438 0.4375 5.570312 -0.363281 3.90625 -1.96875 C 2.25 -3.582031 1.421875 -5.84375 1.421875 -8.75 L 1.421875 -19.4375 L 7.96875 -19.4375 L 7.96875 -8.9375 C 7.96875 -7.507812 8.222656 -6.472656 8.734375 -5.828125 C 9.242188 -5.179688 9.976562 -4.859375 10.9375 -4.859375 C 11.90625 -4.859375 12.640625 -5.179688 13.140625 -5.828125 C 13.648438 -6.472656 13.90625 -7.507812 13.90625 -8.9375 L 13.90625 -19.4375 L 20.359375 -19.4375 L 20.359375 -8.75 C 20.359375 -5.84375 19.523438 -3.582031 17.859375 -1.96875 C 16.191406 -0.363281 13.867188 0.4375 10.890625 0.4375 Z M 10.890625 0.4375 "/></g></g></g><g fill="#ffffff" fill-opacity="1"><g transform="translate(78.792606, 50.113756)"><g><path d="M 33.203125 -19.4375 L 26.984375 0 L 19.96875 0 L 16.828125 -10.390625 L 13.515625 0 L 6.5 0 L 0.28125 -19.4375 L 7.03125 -19.4375 L 10.40625 -8.390625 L 14 -19.4375 L 20.015625 -19.4375 L 23.40625 -8.25 L 26.984375 -19.4375 Z M 33.203125 -19.4375 "/></g></g></g><g fill="#ffffff" fill-opacity="1"><g transform="translate(112.97719, 50.113756)"><g><path d="M 8.828125 0.4375 C 7.210938 0.4375 5.640625 0.257812 4.109375 -0.09375 C 2.585938 -0.457031 1.335938 -0.945312 0.359375 -1.5625 L 2.46875 -6.328125 C 3.394531 -5.796875 4.429688 -5.363281 5.578125 -5.03125 C 6.722656 -4.707031 7.828125 -4.546875 8.890625 -4.546875 C 9.796875 -4.546875 10.441406 -4.632812 10.828125 -4.8125 C 11.210938 -4.988281 11.40625 -5.253906 11.40625 -5.609375 C 11.40625 -6.015625 11.148438 -6.316406 10.640625 -6.515625 C 10.140625 -6.722656 9.304688 -6.945312 8.140625 -7.1875 C 6.640625 -7.5 5.390625 -7.835938 4.390625 -8.203125 C 3.390625 -8.566406 2.519531 -9.160156 1.78125 -9.984375 C 1.039062 -10.804688 0.671875 -11.921875 0.671875 -13.328125 C 0.671875 -14.546875 1.007812 -15.65625 1.6875 -16.65625 C 2.375 -17.65625 3.394531 -18.441406 4.75 -19.015625 C 6.113281 -19.585938 7.769531 -19.875 9.71875 -19.875 C 11.050781 -19.875 12.359375 -19.726562 13.640625 -19.4375 C 14.929688 -19.15625 16.066406 -18.738281 17.046875 -18.1875 L 15.078125 -13.4375 C 13.171875 -14.394531 11.363281 -14.875 9.65625 -14.875 C 7.976562 -14.875 7.140625 -14.46875 7.140625 -13.65625 C 7.140625 -13.269531 7.390625 -12.976562 7.890625 -12.78125 C 8.390625 -12.59375 9.210938 -12.382812 10.359375 -12.15625 C 11.835938 -11.882812 13.082031 -11.566406 14.09375 -11.203125 C 15.113281 -10.835938 16 -10.25 16.75 -9.4375 C 17.5 -8.625 17.875 -7.515625 17.875 -6.109375 C 17.875 -4.890625 17.53125 -3.785156 16.84375 -2.796875 C 16.164062 -1.804688 15.144531 -1.019531 13.78125 -0.4375 C 12.425781 0.144531 10.773438 0.4375 8.828125 0.4375 Z M 8.828125 0.4375 "/></g></g></g></svg>