<svg xmlns="http://www.w3.org/2000/svg" xmlns:xlink="http://www.w3.org/1999/xlink" width="280" zoomAndPan="magnify" viewBox="0 0 210 54" height="72" preserveAspectRatio="xMidYMid meet" version="1.0"><defs><g/><clipPath id="4208043f2c"><path d="M 90.347656 13.347656 L 113.175781 13.347656 L 113.175781 39.859375 L 90.347656 39.859375 Z M 90.347656 13.347656 " clip-rule="nonzero"/></clipPath></defs><g clip-path="url(#4208043f2c)"><path fill="#38a3a5" d="M 90.460938 33.585938 C 90.660156 34.210938 90.355469 34.894531 91.375 34.796875 C 91.371094 34.464844 91.328125 34.46875 91.605469 34.289062 C 91.902344 34.1875 92.527344 34.542969 92.976562 34.671875 C 92.847656 35.578125 93.632812 34.683594 93.519531 35.210938 C 93.730469 35.292969 93.722656 34.84375 93.835938 35.148438 C 94.417969 34.679688 95.160156 34.539062 95.558594 33.777344 C 95.742188 33.675781 96.792969 33.761719 96.769531 33.523438 C 96.140625 33.015625 96.570312 32.609375 97.34375 32.535156 C 97.53125 32.667969 97.050781 33.316406 97.597656 32.980469 C 98.214844 33.3125 98.136719 32.640625 98.683594 32.34375 C 98.835938 32.285156 99.054688 32.476562 99.160156 32.566406 C 99.292969 33.011719 98.851562 32.628906 99.097656 33.109375 C 98.863281 33.070312 98.648438 32.871094 98.839844 33.269531 C 99.523438 33.035156 99.613281 33.609375 100.117188 32.917969 C 100.144531 32.761719 100.15625 32.511719 100.339844 32.472656 C 100.300781 32.921875 100.675781 32.320312 100.691406 33.042969 C 100.246094 33.523438 100.96875 33.542969 100.828125 34.140625 C 100.96875 34.167969 101.160156 34.148438 101.265625 34.03125 C 101.996094 34.316406 100.847656 34.636719 102.09375 34.605469 C 101.984375 34.316406 102.453125 34.632812 102.539062 34.605469 C 102.660156 34.496094 103.003906 34.179688 103.175781 34.289062 C 103.308594 34.449219 103.410156 34.800781 103.367188 35.011719 C 103.527344 35.085938 104.003906 35.105469 103.972656 35.339844 C 104.273438 35.363281 104.6875 35.191406 104.671875 35.65625 C 104.90625 35.515625 105.003906 35.523438 105.152344 35.753906 C 105.152344 35.753906 104.863281 35.976562 104.863281 35.976562 C 105.167969 36.4375 104.683594 35.964844 104.832031 36.519531 C 104.652344 36.402344 104.613281 36.636719 104.546875 36.742188 C 104.882812 36.890625 104.464844 37.292969 104.324219 37.441406 C 104.886719 37.359375 104.15625 38.402344 103.878906 38.269531 C 103.898438 39.171875 104.304688 38.449219 104.164062 39.417969 C 104.429688 39.140625 104.386719 39.554688 104.609375 39.101562 C 104.894531 39.578125 105.066406 39.113281 105.066406 39.417969 C 105.261719 39.199219 105.304688 39.222656 105.480469 39.417969 C 105.667969 39.1875 106.199219 39.664062 106.121094 39.230469 C 106.109375 39.226562 105.820312 39.003906 105.820312 39.003906 C 105.964844 38.648438 106.160156 39.285156 106.140625 38.335938 C 106.332031 38.433594 106.4375 38.65625 106.554688 38.269531 C 106.339844 38.109375 106.523438 37.960938 106.585938 37.792969 C 106.210938 37.832031 105.878906 37.617188 106.109375 37.21875 C 105.558594 37.34375 105.886719 37.109375 105.40625 37.347656 C 105.554688 37 104.875 36.621094 105.46875 36.453125 C 105.46875 36.453125 105.628906 36.773438 105.660156 36.773438 C 105.738281 36.191406 107.339844 35.71875 106.808594 35.433594 C 106.886719 35.34375 107.171875 35.453125 106.9375 35.242188 C 106.265625 35.765625 106.460938 35.210938 106.425781 34.765625 C 106.742188 34.222656 107.386719 33.945312 107.320312 33.304688 C 107.257812 32.835938 107.277344 31.773438 106.523438 31.355469 C 106.738281 30.855469 106.691406 30.898438 106.203125 30.75 C 106.082031 30.070312 106.414062 30.386719 105.660156 30.015625 C 106.382812 29.851562 105.277344 29.300781 105.851562 29.15625 C 105.933594 29.402344 106.277344 28.953125 106.363281 28.902344 C 106.5 29.023438 107.066406 29.304688 106.96875 28.933594 C 106.871094 28.792969 106.753906 28.617188 106.558594 28.679688 C 106.558594 28.679688 106.9375 28.519531 106.9375 28.519531 C 107.296875 28.832031 107.03125 28.933594 107.636719 28.804688 C 107.691406 29.027344 107.886719 29.054688 108.085938 29.027344 C 108 29.210938 108.308594 29.210938 108.402344 29.253906 C 108.425781 29.105469 108.433594 28.933594 108.242188 28.902344 C 108.253906 28.59375 108.492188 29.015625 108.625 28.902344 C 109.0625 29.195312 109.804688 27.992188 110.21875 28.613281 C 112.160156 27.164062 109.007812 27.445312 110.410156 26.796875 C 110.347656 26.300781 110.703125 26.472656 111.027344 26.449219 C 111.027344 26.449219 111.335938 25.9375 111.335938 25.9375 C 111.605469 26.019531 111.730469 25.605469 111.8125 25.425781 C 111.945312 25.457031 112.222656 25.417969 112.289062 25.269531 C 111.742188 24.882812 112.449219 24.238281 112.226562 23.738281 C 112.050781 23.859375 111.828125 23.152344 111.78125 23.101562 C 111.546875 23.496094 111.421875 23.402344 111.046875 23.292969 C 111.074219 23.019531 110.558594 23.332031 110.125 22.910156 C 110.171875 22.675781 109.820312 22.195312 110.230469 22.304688 C 110.140625 22.113281 110.492188 22.191406 110.550781 22.175781 C 109.964844 21.921875 110.449219 21.761719 110.15625 21.507812 C 110.792969 21.175781 111.519531 21.351562 112.132812 21.507812 C 112.386719 20.167969 112.144531 19.546875 113.023438 18.257812 C 113.433594 17.703125 112.605469 16.425781 113.214844 16.183594 C 113.074219 16.136719 113.125 15.625 113.121094 15.515625 C 112.714844 15.601562 112.125 15.371094 112.417969 14.910156 C 112.417969 14.910156 112.609375 14.878906 112.609375 14.878906 C 111.820312 14.796875 111.523438 14.339844 111.429688 13.539062 C 111.28125 13.710938 110.875 13.402344 110.761719 13.347656 C 109.871094 13.414062 108.695312 13.632812 107.828125 14.019531 C 107.199219 13.640625 106.308594 14.015625 105.597656 14.019531 C 104.167969 14.421875 102.328125 15.527344 102.347656 17.203125 C 102.089844 17.09375 102.53125 17.675781 102.507812 17.714844 C 102.34375 18.03125 102.558594 18.429688 102.476562 18.765625 C 101.628906 19.242188 102.914062 19.371094 103.238281 19.53125 C 103.675781 19.5 103.863281 19.113281 104.292969 19.53125 C 103.644531 19.554688 103.425781 20.828125 103.6875 21.253906 C 104.050781 21.921875 102.601562 22.050781 102.664062 22.6875 C 102.195312 23.152344 100.632812 23.574219 100.914062 24.34375 C 100.695312 24.410156 100.277344 24.425781 100.179688 24.152344 C 100.078125 24.429688 99.816406 24.191406 99.957031 23.992188 C 100.253906 24.015625 100.488281 23.621094 100.433594 23.324219 C 100.707031 22.792969 100.558594 22.652344 100.339844 22.015625 C 100.265625 21.832031 100.203125 21.53125 100.433594 21.410156 C 101.140625 21.4375 100.640625 21.925781 101.519531 21.285156 C 101.554688 21.199219 101.589844 20.972656 101.742188 21.03125 C 102.078125 20.746094 101.742188 20.191406 101.328125 20.296875 C 100.789062 20.753906 100.703125 19.765625 100.816406 19.4375 C 100.410156 18.476562 100.257812 18.34375 99.382812 19.023438 C 98.847656 19.121094 98.835938 17.785156 98.425781 18.414062 C 97.882812 21.800781 97.417969 25.550781 94.601562 27.882812 C 94.195312 27.503906 93.714844 27.90625 94.09375 28.359375 C 94.988281 28.523438 94.097656 28.394531 94.570312 29.027344 C 94.1875 29.507812 94.660156 28.746094 93.773438 29.15625 C 93.527344 29.269531 93.3125 29.332031 93.390625 29.699219 C 93.113281 30.390625 92.308594 29.78125 92.339844 30.621094 C 92.648438 31.0625 93.402344 30.015625 93.519531 31.164062 C 94.089844 31.042969 93.75 31.351562 94.253906 31.292969 C 94.449219 31.546875 93.757812 31.621094 94.347656 31.738281 C 94.757812 32.390625 95.105469 31.917969 95.304688 32.40625 C 95.527344 32.453125 95.480469 32.78125 95.496094 32.949219 C 95.164062 32.703125 95.125 33.257812 94.761719 32.851562 C 94.453125 32.074219 93.75 32.246094 93.390625 31.449219 C 92.546875 31.425781 91.339844 31.320312 90.84375 32.121094 C 91.3125 32.460938 91.636719 33.320312 92.277344 32.726562 C 92.492188 33.039062 92.78125 33.261719 93.105469 33.457031 C 93.964844 33.457031 93.453125 32.960938 94.027344 32.726562 C 94.902344 33.628906 94.964844 33.109375 95.65625 33.492188 C 95.144531 33.535156 94.566406 33.96875 94.285156 33.300781 C 93.722656 33.25 94.210938 33.566406 93.359375 33.9375 C 92.371094 33.8125 91.410156 32.863281 90.460938 33.585938 " fill-opacity="1" fill-rule="nonzero"/></g><g fill="#ffffff" fill-opacity="1"><g transform="translate(115.542781, 32.801735)"><g><path d="M 7.703125 0.296875 C 6.335938 0.296875 5.109375 0.0078125 4.015625 -0.5625 C 2.921875 -1.132812 2.066406 -1.925781 1.453125 -2.9375 C 0.835938 -3.945312 0.53125 -5.085938 0.53125 -6.359375 C 0.53125 -7.628906 0.835938 -8.769531 1.453125 -9.78125 C 2.066406 -10.789062 2.921875 -11.582031 4.015625 -12.15625 C 5.109375 -12.726562 6.335938 -13.015625 7.703125 -13.015625 C 9.078125 -13.015625 10.304688 -12.726562 11.390625 -12.15625 C 12.484375 -11.582031 13.335938 -10.789062 13.953125 -9.78125 C 14.566406 -8.769531 14.875 -7.628906 14.875 -6.359375 C 14.875 -5.085938 14.566406 -3.945312 13.953125 -2.9375 C 13.335938 -1.925781 12.484375 -1.132812 11.390625 -0.5625 C 10.304688 0.0078125 9.078125 0.296875 7.703125 0.296875 Z M 7.703125 -3.1875 C 8.234375 -3.1875 8.710938 -3.316406 9.140625 -3.578125 C 9.578125 -3.835938 9.921875 -4.203125 10.171875 -4.671875 C 10.429688 -5.148438 10.5625 -5.710938 10.5625 -6.359375 C 10.5625 -7.003906 10.429688 -7.566406 10.171875 -8.046875 C 9.921875 -8.523438 9.578125 -8.894531 9.140625 -9.15625 C 8.710938 -9.414062 8.234375 -9.546875 7.703125 -9.546875 C 7.171875 -9.546875 6.6875 -9.414062 6.25 -9.15625 C 5.820312 -8.894531 5.484375 -8.523438 5.234375 -8.046875 C 4.984375 -7.566406 4.859375 -7.003906 4.859375 -6.359375 C 4.859375 -5.710938 4.984375 -5.148438 5.234375 -4.671875 C 5.484375 -4.203125 5.820312 -3.835938 6.25 -3.578125 C 6.6875 -3.316406 7.171875 -3.1875 7.703125 -3.1875 Z M 7.703125 -3.1875 "/></g></g></g><g fill="#ffffff" fill-opacity="1"><g transform="translate(131.410948, 32.801735)"><g><path d="M 12.390625 0 L 12.359375 -5.796875 L 9.59375 -1.140625 L 7.703125 -1.140625 L 4.9375 -5.59375 L 4.9375 0 L 1.03125 0 L 1.03125 -12.71875 L 4.5625 -12.71875 L 8.703125 -5.9375 L 12.734375 -12.71875 L 16.265625 -12.71875 L 16.296875 0 Z M 12.390625 0 "/></g></g></g><g fill="#ffffff" fill-opacity="1"><g transform="translate(149.205827, 32.801735)"><g><path d="M 6.484375 -3.203125 L 5.328125 -3.203125 L 5.328125 0 L 1.03125 0 L 1.03125 -12.71875 L 7.15625 -12.71875 C 8.332031 -12.71875 9.359375 -12.523438 10.234375 -12.140625 C 11.109375 -11.753906 11.78125 -11.195312 12.25 -10.46875 C 12.71875 -9.738281 12.953125 -8.890625 12.953125 -7.921875 C 12.953125 -7.015625 12.742188 -6.222656 12.328125 -5.546875 C 11.921875 -4.867188 11.332031 -4.328125 10.5625 -3.921875 L 13.234375 0 L 8.65625 0 Z M 8.625 -7.921875 C 8.625 -8.390625 8.476562 -8.753906 8.1875 -9.015625 C 7.90625 -9.273438 7.472656 -9.40625 6.890625 -9.40625 L 5.328125 -9.40625 L 5.328125 -6.4375 L 6.890625 -6.4375 C 7.472656 -6.4375 7.90625 -6.566406 8.1875 -6.828125 C 8.476562 -7.085938 8.625 -7.453125 8.625 -7.921875 Z M 8.625 -7.921875 "/></g></g></g><g fill="#ffffff" fill-opacity="1"><g transform="translate(163.201809, 32.801735)"><g><path d="M 7.703125 0.296875 C 6.335938 0.296875 5.109375 0.0078125 4.015625 -0.5625 C 2.921875 -1.132812 2.066406 -1.925781 1.453125 -2.9375 C 0.835938 -3.945312 0.53125 -5.085938 0.53125 -6.359375 C 0.53125 -7.628906 0.835938 -8.769531 1.453125 -9.78125 C 2.066406 -10.789062 2.921875 -11.582031 4.015625 -12.15625 C 5.109375 -12.726562 6.335938 -13.015625 7.703125 -13.015625 C 9.078125 -13.015625 10.304688 -12.726562 11.390625 -12.15625 C 12.484375 -11.582031 13.335938 -10.789062 13.953125 -9.78125 C 14.566406 -8.769531 14.875 -7.628906 14.875 -6.359375 C 14.875 -5.085938 14.566406 -3.945312 13.953125 -2.9375 C 13.335938 -1.925781 12.484375 -1.132812 11.390625 -0.5625 C 10.304688 0.0078125 9.078125 0.296875 7.703125 0.296875 Z M 7.703125 -3.1875 C 8.234375 -3.1875 8.710938 -3.316406 9.140625 -3.578125 C 9.578125 -3.835938 9.921875 -4.203125 10.171875 -4.671875 C 10.429688 -5.148438 10.5625 -5.710938 10.5625 -6.359375 C 10.5625 -7.003906 10.429688 -7.566406 10.171875 -8.046875 C 9.921875 -8.523438 9.578125 -8.894531 9.140625 -9.15625 C 8.710938 -9.414062 8.234375 -9.546875 7.703125 -9.546875 C 7.171875 -9.546875 6.6875 -9.414062 6.25 -9.15625 C 5.820312 -8.894531 5.484375 -8.523438 5.234375 -8.046875 C 4.984375 -7.566406 4.859375 -7.003906 4.859375 -6.359375 C 4.859375 -5.710938 4.984375 -5.148438 5.234375 -4.671875 C 5.484375 -4.203125 5.820312 -3.835938 6.25 -3.578125 C 6.6875 -3.316406 7.171875 -3.1875 7.703125 -3.1875 Z M 7.703125 -3.1875 "/></g></g></g><g fill="#ffffff" fill-opacity="1"><g transform="translate(179.069974, 32.801735)"><g><path d="M 11.609375 -3.234375 L 11.609375 0 L 1.03125 0 L 1.03125 -12.71875 L 11.375 -12.71875 L 11.375 -9.484375 L 5.25 -9.484375 L 5.25 -8 L 10.625 -8 L 10.625 -4.90625 L 5.25 -4.90625 L 5.25 -3.234375 Z M 11.609375 -3.234375 "/></g></g></g><g fill="#ffffff" fill-opacity="1"><g transform="translate(191.757245, 32.801735)"><g><path d="M 7.15625 -12.71875 C 8.332031 -12.71875 9.359375 -12.523438 10.234375 -12.140625 C 11.109375 -11.753906 11.78125 -11.195312 12.25 -10.46875 C 12.71875 -9.738281 12.953125 -8.890625 12.953125 -7.921875 C 12.953125 -6.953125 12.71875 -6.101562 12.25 -5.375 C 11.78125 -4.644531 11.109375 -4.085938 10.234375 -3.703125 C 9.359375 -3.316406 8.332031 -3.125 7.15625 -3.125 L 5.328125 -3.125 L 5.328125 0 L 1.03125 0 L 1.03125 -12.71875 Z M 6.890625 -6.4375 C 7.472656 -6.4375 7.90625 -6.566406 8.1875 -6.828125 C 8.476562 -7.085938 8.625 -7.453125 8.625 -7.921875 C 8.625 -8.390625 8.476562 -8.753906 8.1875 -9.015625 C 7.90625 -9.273438 7.472656 -9.40625 6.890625 -9.40625 L 5.328125 -9.40625 L 5.328125 -6.4375 Z M 6.890625 -6.4375 "/></g></g></g><g fill="#ffffff" fill-opacity="1"><g transform="translate(4.205635, 32.801735)"><g><path d="M 13.578125 -12.71875 L 13.578125 0 L 10.046875 0 L 5.21875 -5.78125 L 5.21875 0 L 1.03125 0 L 1.03125 -12.71875 L 4.5625 -12.71875 L 9.390625 -6.9375 L 9.390625 -12.71875 Z M 13.578125 -12.71875 "/></g></g></g><g fill="#ffffff" fill-opacity="1"><g transform="translate(19.274034, 32.801735)"><g><path d="M 1.03125 -12.71875 L 5.328125 -12.71875 L 5.328125 0 L 1.03125 0 Z M 1.03125 -12.71875 "/></g></g></g><g fill="#ffffff" fill-opacity="1"><g transform="translate(26.090285, 32.801735)"><g><path d="M 11.609375 -3.234375 L 11.609375 0 L 1.03125 0 L 1.03125 -12.71875 L 11.375 -12.71875 L 11.375 -9.484375 L 5.25 -9.484375 L 5.25 -8 L 10.625 -8 L 10.625 -4.90625 L 5.25 -4.90625 L 5.25 -3.234375 Z M 11.609375 -3.234375 "/></g></g></g><g fill="#ffffff" fill-opacity="1"><g transform="translate(38.777559, 32.801735)"><g><path d="M 7.125 0.296875 C 5.175781 0.296875 3.65625 -0.226562 2.5625 -1.28125 C 1.46875 -2.34375 0.921875 -3.820312 0.921875 -5.71875 L 0.921875 -12.71875 L 5.21875 -12.71875 L 5.21875 -5.84375 C 5.21875 -4.914062 5.382812 -4.238281 5.71875 -3.8125 C 6.050781 -3.394531 6.53125 -3.1875 7.15625 -3.1875 C 7.789062 -3.1875 8.273438 -3.394531 8.609375 -3.8125 C 8.941406 -4.238281 9.109375 -4.914062 9.109375 -5.84375 L 9.109375 -12.71875 L 13.3125 -12.71875 L 13.3125 -5.71875 C 13.3125 -3.820312 12.765625 -2.34375 11.671875 -1.28125 C 10.585938 -0.226562 9.070312 0.296875 7.125 0.296875 Z M 7.125 0.296875 "/></g></g></g><g fill="#ffffff" fill-opacity="1"><g transform="translate(53.482427, 32.801735)"><g><path d="M 21.734375 -12.71875 L 17.65625 0 L 13.0625 0 L 11.015625 -6.796875 L 8.84375 0 L 4.25 0 L 0.1875 -12.71875 L 4.59375 -12.71875 L 6.8125 -5.484375 L 9.15625 -12.71875 L 13.109375 -12.71875 L 15.3125 -5.390625 L 17.65625 -12.71875 Z M 21.734375 -12.71875 "/></g></g></g><g fill="#ffffff" fill-opacity="1"><g transform="translate(75.857791, 32.801735)"><g><path d="M 5.78125 0.296875 C 4.726562 0.296875 3.703125 0.175781 2.703125 -0.0625 C 1.703125 -0.300781 0.878906 -0.617188 0.234375 -1.015625 L 1.625 -4.140625 C 2.226562 -3.785156 2.90625 -3.503906 3.65625 -3.296875 C 4.40625 -3.085938 5.125 -2.984375 5.8125 -2.984375 C 6.40625 -2.984375 6.828125 -3.039062 7.078125 -3.15625 C 7.335938 -3.269531 7.46875 -3.441406 7.46875 -3.671875 C 7.46875 -3.941406 7.300781 -4.140625 6.96875 -4.265625 C 6.632812 -4.398438 6.085938 -4.546875 5.328125 -4.703125 C 4.347656 -4.910156 3.53125 -5.128906 2.875 -5.359375 C 2.21875 -5.597656 1.644531 -5.988281 1.15625 -6.53125 C 0.675781 -7.070312 0.4375 -7.800781 0.4375 -8.71875 C 0.4375 -9.519531 0.660156 -10.25 1.109375 -10.90625 C 1.554688 -11.5625 2.222656 -12.078125 3.109375 -12.453125 C 4.003906 -12.828125 5.085938 -13.015625 6.359375 -13.015625 C 7.234375 -13.015625 8.085938 -12.921875 8.921875 -12.734375 C 9.765625 -12.546875 10.507812 -12.269531 11.15625 -11.90625 L 9.875 -8.796875 C 8.625 -9.421875 7.441406 -9.734375 6.328125 -9.734375 C 5.222656 -9.734375 4.671875 -9.46875 4.671875 -8.9375 C 4.671875 -8.6875 4.832031 -8.492188 5.15625 -8.359375 C 5.488281 -8.234375 6.03125 -8.097656 6.78125 -7.953125 C 7.75 -7.773438 8.566406 -7.566406 9.234375 -7.328125 C 9.898438 -7.097656 10.476562 -6.710938 10.96875 -6.171875 C 11.457031 -5.640625 11.703125 -4.914062 11.703125 -4 C 11.703125 -3.195312 11.476562 -2.472656 11.03125 -1.828125 C 10.582031 -1.179688 9.910156 -0.664062 9.015625 -0.28125 C 8.128906 0.101562 7.050781 0.296875 5.78125 0.296875 Z M 5.78125 0.296875 "/></g></g></g></svg>