<svg xmlns="http://www.w3.org/2000/svg" xmlns:xlink="http://www.w3.org/1999/xlink" width="250" zoomAndPan="magnify" viewBox="0 0 187.5 56.249996" height="75" preserveAspectRatio="xMidYMid meet" version="1.0"><defs><g/><clipPath id="9335099109"><path d="M 80.355469 15.945312 L 101 15.945312 L 101 39.628906 L 80.355469 39.628906 Z M 80.355469 15.945312 " clip-rule="nonzero"/></clipPath></defs><g clip-path="url(#9335099109)"><path fill="#38a3a5" d="M 80.453125 34.105469 C 80.636719 34.664062 80.363281 35.28125 81.277344 35.195312 C 81.273438 34.894531 81.230469 34.898438 81.484375 34.734375 C 81.75 34.644531 82.308594 34.964844 82.714844 35.078125 C 82.597656 35.894531 83.304688 35.089844 83.199219 35.566406 C 83.390625 35.640625 83.382812 35.234375 83.484375 35.507812 C 84.007812 35.089844 84.671875 34.960938 85.03125 34.277344 C 85.195312 34.1875 86.136719 34.265625 86.117188 34.050781 C 85.554688 33.59375 85.9375 33.230469 86.632812 33.164062 C 86.800781 33.28125 86.367188 33.867188 86.859375 33.5625 C 87.414062 33.859375 87.347656 33.257812 87.832031 32.992188 C 87.972656 32.941406 88.167969 33.113281 88.261719 33.191406 C 88.382812 33.59375 87.988281 33.246094 88.207031 33.675781 C 87.996094 33.644531 87.800781 33.464844 87.976562 33.820312 C 88.589844 33.613281 88.667969 34.128906 89.121094 33.507812 C 89.144531 33.367188 89.15625 33.140625 89.320312 33.105469 C 89.285156 33.507812 89.625 32.96875 89.636719 33.621094 C 89.238281 34.046875 89.886719 34.066406 89.757812 34.601562 C 89.882812 34.628906 90.058594 34.609375 90.152344 34.507812 C 90.808594 34.761719 89.777344 35.050781 90.894531 35.023438 C 90.796875 34.761719 91.21875 35.042969 91.292969 35.023438 C 91.402344 34.921875 91.710938 34.636719 91.867188 34.734375 C 91.984375 34.878906 92.078125 35.199219 92.039062 35.382812 C 92.179688 35.453125 92.609375 35.46875 92.582031 35.679688 C 92.851562 35.703125 93.222656 35.546875 93.210938 35.964844 C 93.417969 35.835938 93.507812 35.847656 93.640625 36.050781 C 93.640625 36.050781 93.382812 36.25 93.382812 36.25 C 93.65625 36.667969 93.21875 36.238281 93.355469 36.738281 C 93.191406 36.632812 93.15625 36.84375 93.097656 36.9375 C 93.398438 37.074219 93.023438 37.433594 92.894531 37.566406 C 93.402344 37.492188 92.746094 38.425781 92.496094 38.3125 C 92.515625 39.117188 92.878906 38.472656 92.753906 39.339844 C 92.992188 39.09375 92.953125 39.460938 93.152344 39.054688 C 93.410156 39.484375 93.5625 39.066406 93.5625 39.339844 C 93.738281 39.144531 93.777344 39.164062 93.9375 39.339844 C 94.105469 39.132812 94.582031 39.558594 94.507812 39.171875 C 94.496094 39.167969 94.242188 38.96875 94.242188 38.96875 C 94.371094 38.652344 94.542969 39.21875 94.527344 38.367188 C 94.699219 38.457031 94.792969 38.65625 94.898438 38.3125 C 94.707031 38.167969 94.871094 38.03125 94.925781 37.882812 C 94.589844 37.917969 94.292969 37.722656 94.496094 37.367188 C 94.007812 37.480469 94.300781 37.269531 93.867188 37.480469 C 94.003906 37.167969 93.394531 36.832031 93.925781 36.679688 C 93.925781 36.679688 94.070312 36.96875 94.097656 36.96875 C 94.164062 36.445312 95.601562 36.019531 95.128906 35.765625 C 95.195312 35.683594 95.453125 35.78125 95.242188 35.59375 C 94.636719 36.0625 94.816406 35.5625 94.785156 35.164062 C 95.066406 34.675781 95.648438 34.429688 95.585938 33.855469 C 95.527344 33.433594 95.546875 32.480469 94.871094 32.105469 C 95.0625 31.65625 95.019531 31.691406 94.582031 31.5625 C 94.476562 30.953125 94.773438 31.234375 94.097656 30.902344 C 94.746094 30.753906 93.753906 30.261719 94.269531 30.132812 C 94.339844 30.351562 94.648438 29.949219 94.726562 29.902344 C 94.847656 30.011719 95.359375 30.265625 95.269531 29.929688 C 95.183594 29.804688 95.078125 29.648438 94.902344 29.703125 C 94.902344 29.703125 95.242188 29.558594 95.242188 29.558594 C 95.5625 29.839844 95.328125 29.929688 95.871094 29.816406 C 95.921875 30.015625 96.09375 30.039062 96.269531 30.015625 C 96.195312 30.179688 96.472656 30.179688 96.558594 30.21875 C 96.578125 30.085938 96.585938 29.929688 96.414062 29.902344 C 96.425781 29.628906 96.636719 30.007812 96.757812 29.902344 C 97.148438 30.167969 97.8125 29.085938 98.1875 29.644531 C 99.929688 28.34375 97.097656 28.59375 98.359375 28.015625 C 98.304688 27.570312 98.621094 27.722656 98.914062 27.699219 C 98.914062 27.699219 99.1875 27.242188 99.1875 27.242188 C 99.429688 27.316406 99.546875 26.941406 99.617188 26.785156 C 99.734375 26.808594 99.984375 26.777344 100.046875 26.640625 C 99.554688 26.292969 100.191406 25.714844 99.988281 25.269531 C 99.832031 25.375 99.628906 24.746094 99.589844 24.695312 C 99.378906 25.050781 99.269531 24.96875 98.929688 24.867188 C 98.953125 24.625 98.492188 24.902344 98.101562 24.523438 C 98.144531 24.3125 97.828125 23.882812 98.199219 23.980469 C 98.117188 23.808594 98.433594 23.878906 98.484375 23.867188 C 97.957031 23.636719 98.394531 23.492188 98.128906 23.265625 C 98.699219 22.96875 99.351562 23.125 99.902344 23.265625 C 100.132812 22.0625 99.914062 21.503906 100.703125 20.347656 C 101.070312 19.851562 100.328125 18.707031 100.875 18.488281 C 100.746094 18.445312 100.796875 17.988281 100.789062 17.890625 C 100.425781 17.96875 99.898438 17.757812 100.160156 17.347656 C 100.160156 17.347656 100.332031 17.316406 100.332031 17.316406 C 99.625 17.242188 99.355469 16.832031 99.273438 16.117188 C 99.140625 16.269531 98.777344 15.992188 98.671875 15.945312 C 97.875 16.003906 96.820312 16.199219 96.042969 16.542969 C 95.476562 16.207031 94.679688 16.542969 94.039062 16.542969 C 92.753906 16.910156 91.105469 17.898438 91.121094 19.40625 C 90.890625 19.308594 91.289062 19.828125 91.265625 19.863281 C 91.121094 20.148438 91.3125 20.503906 91.238281 20.808594 C 90.480469 21.234375 91.632812 21.351562 91.921875 21.492188 C 92.3125 21.464844 92.484375 21.117188 92.867188 21.492188 C 92.289062 21.515625 92.09375 22.65625 92.324219 23.039062 C 92.652344 23.640625 91.347656 23.753906 91.410156 24.324219 C 90.984375 24.742188 89.585938 25.121094 89.835938 25.8125 C 89.640625 25.871094 89.265625 25.886719 89.179688 25.640625 C 89.085938 25.886719 88.851562 25.675781 88.976562 25.496094 C 89.246094 25.519531 89.453125 25.164062 89.40625 24.898438 C 89.648438 24.417969 89.519531 24.296875 89.320312 23.722656 C 89.253906 23.558594 89.199219 23.289062 89.40625 23.179688 C 90.039062 23.203125 89.589844 23.644531 90.378906 23.066406 C 90.410156 22.988281 90.441406 22.789062 90.578125 22.835938 C 90.878906 22.582031 90.578125 22.082031 90.207031 22.179688 C 89.722656 22.589844 89.648438 21.703125 89.75 21.40625 C 89.386719 20.546875 89.246094 20.429688 88.460938 21.035156 C 87.980469 21.125 87.96875 19.925781 87.605469 20.492188 C 87.117188 23.53125 86.699219 26.894531 84.171875 28.988281 C 83.808594 28.648438 83.375 29.007812 83.714844 29.417969 C 84.519531 29.5625 83.71875 29.445312 84.144531 30.015625 C 83.800781 30.449219 84.226562 29.761719 83.429688 30.132812 C 83.207031 30.230469 83.015625 30.289062 83.085938 30.617188 C 82.835938 31.238281 82.113281 30.691406 82.140625 31.445312 C 82.421875 31.839844 83.097656 30.902344 83.199219 31.933594 C 83.710938 31.824219 83.40625 32.101562 83.859375 32.046875 C 84.035156 32.273438 83.417969 32.34375 83.945312 32.449219 C 84.3125 33.03125 84.621094 32.609375 84.800781 33.046875 C 85.003906 33.089844 84.960938 33.382812 84.972656 33.535156 C 84.675781 33.3125 84.640625 33.8125 84.316406 33.449219 C 84.039062 32.75 83.40625 32.902344 83.085938 32.191406 C 82.328125 32.167969 81.246094 32.074219 80.796875 32.789062 C 81.21875 33.097656 81.511719 33.867188 82.085938 33.335938 C 82.277344 33.613281 82.539062 33.816406 82.828125 33.992188 C 83.601562 33.988281 83.140625 33.542969 83.65625 33.335938 C 84.441406 34.144531 84.496094 33.679688 85.117188 34.019531 C 84.65625 34.0625 84.140625 34.449219 83.886719 33.847656 C 83.382812 33.804688 83.824219 34.089844 83.058594 34.421875 C 82.167969 34.308594 81.304688 33.457031 80.453125 34.105469 " fill-opacity="1" fill-rule="nonzero"/></g><g fill="#ffffff" fill-opacity="1"><g transform="translate(102.96466, 33.40211)"><g><path d="M 6.921875 0.265625 C 5.691406 0.265625 4.585938 0.0078125 3.609375 -0.5 C 2.628906 -1.007812 1.859375 -1.71875 1.296875 -2.625 C 0.742188 -3.539062 0.46875 -4.566406 0.46875 -5.703125 C 0.46875 -6.847656 0.742188 -7.875 1.296875 -8.78125 C 1.859375 -9.6875 2.628906 -10.394531 3.609375 -10.90625 C 4.585938 -11.425781 5.691406 -11.6875 6.921875 -11.6875 C 8.148438 -11.6875 9.253906 -11.425781 10.234375 -10.90625 C 11.210938 -10.394531 11.976562 -9.6875 12.53125 -8.78125 C 13.082031 -7.875 13.359375 -6.847656 13.359375 -5.703125 C 13.359375 -4.566406 13.082031 -3.539062 12.53125 -2.625 C 11.976562 -1.71875 11.210938 -1.007812 10.234375 -0.5 C 9.253906 0.0078125 8.148438 0.265625 6.921875 0.265625 Z M 6.921875 -2.859375 C 7.398438 -2.859375 7.832031 -2.972656 8.21875 -3.203125 C 8.601562 -3.441406 8.910156 -3.773438 9.140625 -4.203125 C 9.367188 -4.628906 9.484375 -5.128906 9.484375 -5.703125 C 9.484375 -6.285156 9.367188 -6.789062 9.140625 -7.21875 C 8.910156 -7.644531 8.601562 -7.972656 8.21875 -8.203125 C 7.832031 -8.441406 7.398438 -8.5625 6.921875 -8.5625 C 6.441406 -8.5625 6.007812 -8.441406 5.625 -8.203125 C 5.238281 -7.972656 4.929688 -7.644531 4.703125 -7.21875 C 4.472656 -6.789062 4.359375 -6.285156 4.359375 -5.703125 C 4.359375 -5.128906 4.472656 -4.628906 4.703125 -4.203125 C 4.929688 -3.773438 5.238281 -3.441406 5.625 -3.203125 C 6.007812 -2.972656 6.441406 -2.859375 6.921875 -2.859375 Z M 6.921875 -2.859375 "/></g></g></g><g fill="#ffffff" fill-opacity="1"><g transform="translate(117.205163, 33.40211)"><g><path d="M 11.125 0 L 11.09375 -5.203125 L 8.609375 -1.03125 L 6.921875 -1.03125 L 4.4375 -5.03125 L 4.4375 0 L 0.9375 0 L 0.9375 -11.421875 L 4.09375 -11.421875 L 7.8125 -5.328125 L 11.4375 -11.421875 L 14.59375 -11.421875 L 14.625 0 Z M 11.125 0 "/></g></g></g><g fill="#ffffff" fill-opacity="1"><g transform="translate(133.174748, 33.40211)"><g><path d="M 5.828125 -2.875 L 4.78125 -2.875 L 4.78125 0 L 0.9375 0 L 0.9375 -11.421875 L 6.421875 -11.421875 C 7.484375 -11.421875 8.40625 -11.242188 9.1875 -10.890625 C 9.96875 -10.546875 10.566406 -10.046875 10.984375 -9.390625 C 11.410156 -8.742188 11.625 -7.984375 11.625 -7.109375 C 11.625 -6.296875 11.4375 -5.582031 11.0625 -4.96875 C 10.695312 -4.363281 10.171875 -3.882812 9.484375 -3.53125 L 11.875 0 L 7.765625 0 Z M 7.75 -7.109375 C 7.75 -7.535156 7.617188 -7.863281 7.359375 -8.09375 C 7.097656 -8.332031 6.707031 -8.453125 6.1875 -8.453125 L 4.78125 -8.453125 L 4.78125 -5.78125 L 6.1875 -5.78125 C 6.707031 -5.78125 7.097656 -5.894531 7.359375 -6.125 C 7.617188 -6.351562 7.75 -6.679688 7.75 -7.109375 Z M 7.75 -7.109375 "/></g></g></g><g fill="#ffffff" fill-opacity="1"><g transform="translate(145.735103, 33.40211)"><g><path d="M 6.921875 0.265625 C 5.691406 0.265625 4.585938 0.0078125 3.609375 -0.5 C 2.628906 -1.007812 1.859375 -1.71875 1.296875 -2.625 C 0.742188 -3.539062 0.46875 -4.566406 0.46875 -5.703125 C 0.46875 -6.847656 0.742188 -7.875 1.296875 -8.78125 C 1.859375 -9.6875 2.628906 -10.394531 3.609375 -10.90625 C 4.585938 -11.425781 5.691406 -11.6875 6.921875 -11.6875 C 8.148438 -11.6875 9.253906 -11.425781 10.234375 -10.90625 C 11.210938 -10.394531 11.976562 -9.6875 12.53125 -8.78125 C 13.082031 -7.875 13.359375 -6.847656 13.359375 -5.703125 C 13.359375 -4.566406 13.082031 -3.539062 12.53125 -2.625 C 11.976562 -1.71875 11.210938 -1.007812 10.234375 -0.5 C 9.253906 0.0078125 8.148438 0.265625 6.921875 0.265625 Z M 6.921875 -2.859375 C 7.398438 -2.859375 7.832031 -2.972656 8.21875 -3.203125 C 8.601562 -3.441406 8.910156 -3.773438 9.140625 -4.203125 C 9.367188 -4.628906 9.484375 -5.128906 9.484375 -5.703125 C 9.484375 -6.285156 9.367188 -6.789062 9.140625 -7.21875 C 8.910156 -7.644531 8.601562 -7.972656 8.21875 -8.203125 C 7.832031 -8.441406 7.398438 -8.5625 6.921875 -8.5625 C 6.441406 -8.5625 6.007812 -8.441406 5.625 -8.203125 C 5.238281 -7.972656 4.929688 -7.644531 4.703125 -7.21875 C 4.472656 -6.789062 4.359375 -6.285156 4.359375 -5.703125 C 4.359375 -5.128906 4.472656 -4.628906 4.703125 -4.203125 C 4.929688 -3.773438 5.238281 -3.441406 5.625 -3.203125 C 6.007812 -2.972656 6.441406 -2.859375 6.921875 -2.859375 Z M 6.921875 -2.859375 "/></g></g></g><g fill="#ffffff" fill-opacity="1"><g transform="translate(159.975605, 33.40211)"><g><path d="M 10.421875 -2.90625 L 10.421875 0 L 0.9375 0 L 0.9375 -11.421875 L 10.21875 -11.421875 L 10.21875 -8.515625 L 4.71875 -8.515625 L 4.71875 -7.171875 L 9.546875 -7.171875 L 9.546875 -4.40625 L 4.71875 -4.40625 L 4.71875 -2.90625 Z M 10.421875 -2.90625 "/></g></g></g><g fill="#ffffff" fill-opacity="1"><g transform="translate(171.361489, 33.40211)"><g><path d="M 6.421875 -11.421875 C 7.484375 -11.421875 8.40625 -11.242188 9.1875 -10.890625 C 9.96875 -10.546875 10.566406 -10.046875 10.984375 -9.390625 C 11.410156 -8.742188 11.625 -7.984375 11.625 -7.109375 C 11.625 -6.242188 11.410156 -5.484375 10.984375 -4.828125 C 10.566406 -4.171875 9.96875 -3.671875 9.1875 -3.328125 C 8.40625 -2.984375 7.484375 -2.8125 6.421875 -2.8125 L 4.78125 -2.8125 L 4.78125 0 L 0.9375 0 L 0.9375 -11.421875 Z M 6.1875 -5.78125 C 6.707031 -5.78125 7.097656 -5.894531 7.359375 -6.125 C 7.617188 -6.351562 7.75 -6.679688 7.75 -7.109375 C 7.75 -7.535156 7.617188 -7.863281 7.359375 -8.09375 C 7.097656 -8.332031 6.707031 -8.453125 6.1875 -8.453125 L 4.78125 -8.453125 L 4.78125 -5.78125 Z M 6.1875 -5.78125 "/></g></g></g><g fill="#ffffff" fill-opacity="1"><g transform="translate(3.047827, 33.40211)"><g><path d="M 12.1875 -11.421875 L 12.1875 0 L 9.015625 0 L 4.6875 -5.1875 L 4.6875 0 L 0.9375 0 L 0.9375 -11.421875 L 4.09375 -11.421875 L 8.4375 -6.234375 L 8.4375 -11.421875 Z M 12.1875 -11.421875 "/></g></g></g><g fill="#ffffff" fill-opacity="1"><g transform="translate(16.570598, 33.40211)"><g><path d="M 0.9375 -11.421875 L 4.78125 -11.421875 L 4.78125 0 L 0.9375 0 Z M 0.9375 -11.421875 "/></g></g></g><g fill="#ffffff" fill-opacity="1"><g transform="translate(22.687678, 33.40211)"><g><path d="M 10.421875 -2.90625 L 10.421875 0 L 0.9375 0 L 0.9375 -11.421875 L 10.21875 -11.421875 L 10.21875 -8.515625 L 4.71875 -8.515625 L 4.71875 -7.171875 L 9.546875 -7.171875 L 9.546875 -4.40625 L 4.71875 -4.40625 L 4.71875 -2.90625 Z M 10.421875 -2.90625 "/></g></g></g><g fill="#ffffff" fill-opacity="1"><g transform="translate(34.073565, 33.40211)"><g><path d="M 6.390625 0.265625 C 4.640625 0.265625 3.273438 -0.207031 2.296875 -1.15625 C 1.316406 -2.101562 0.828125 -3.429688 0.828125 -5.140625 L 0.828125 -11.421875 L 4.6875 -11.421875 L 4.6875 -5.25 C 4.6875 -4.414062 4.832031 -3.804688 5.125 -3.421875 C 5.425781 -3.046875 5.859375 -2.859375 6.421875 -2.859375 C 6.992188 -2.859375 7.425781 -3.046875 7.71875 -3.421875 C 8.019531 -3.804688 8.171875 -4.414062 8.171875 -5.25 L 8.171875 -11.421875 L 11.953125 -11.421875 L 11.953125 -5.140625 C 11.953125 -3.429688 11.460938 -2.101562 10.484375 -1.15625 C 9.503906 -0.207031 8.140625 0.265625 6.390625 0.265625 Z M 6.390625 0.265625 "/></g></g></g><g fill="#ffffff" fill-opacity="1"><g transform="translate(47.270093, 33.40211)"><g><path d="M 19.515625 -11.421875 L 15.859375 0 L 11.734375 0 L 9.890625 -6.09375 L 7.9375 0 L 3.8125 0 L 0.15625 -11.421875 L 4.125 -11.421875 L 6.125 -4.921875 L 8.21875 -11.421875 L 11.765625 -11.421875 L 13.75 -4.84375 L 15.859375 -11.421875 Z M 19.515625 -11.421875 "/></g></g></g><g fill="#ffffff" fill-opacity="1"><g transform="translate(67.350323, 33.40211)"><g><path d="M 5.1875 0.265625 C 4.238281 0.265625 3.316406 0.160156 2.421875 -0.046875 C 1.523438 -0.265625 0.789062 -0.550781 0.21875 -0.90625 L 1.453125 -3.71875 C 1.992188 -3.40625 2.601562 -3.148438 3.28125 -2.953125 C 3.957031 -2.765625 4.601562 -2.671875 5.21875 -2.671875 C 5.75 -2.671875 6.128906 -2.722656 6.359375 -2.828125 C 6.585938 -2.929688 6.703125 -3.085938 6.703125 -3.296875 C 6.703125 -3.535156 6.550781 -3.710938 6.25 -3.828125 C 5.957031 -3.953125 5.46875 -4.082031 4.78125 -4.21875 C 3.894531 -4.40625 3.160156 -4.601562 2.578125 -4.8125 C 1.992188 -5.03125 1.484375 -5.378906 1.046875 -5.859375 C 0.609375 -6.347656 0.390625 -7.003906 0.390625 -7.828125 C 0.390625 -8.546875 0.585938 -9.195312 0.984375 -9.78125 C 1.390625 -10.375 1.992188 -10.835938 2.796875 -11.171875 C 3.597656 -11.515625 4.566406 -11.6875 5.703125 -11.6875 C 6.492188 -11.6875 7.265625 -11.597656 8.015625 -11.421875 C 8.773438 -11.253906 9.441406 -11.007812 10.015625 -10.6875 L 8.859375 -7.890625 C 7.734375 -8.460938 6.671875 -8.75 5.671875 -8.75 C 4.679688 -8.75 4.1875 -8.507812 4.1875 -8.03125 C 4.1875 -7.800781 4.332031 -7.628906 4.625 -7.515625 C 4.925781 -7.398438 5.410156 -7.273438 6.078125 -7.140625 C 6.953125 -6.984375 7.6875 -6.796875 8.28125 -6.578125 C 8.882812 -6.367188 9.40625 -6.023438 9.84375 -5.546875 C 10.28125 -5.066406 10.5 -4.414062 10.5 -3.59375 C 10.5 -2.875 10.296875 -2.222656 9.890625 -1.640625 C 9.492188 -1.054688 8.894531 -0.59375 8.09375 -0.25 C 7.300781 0.09375 6.332031 0.265625 5.1875 0.265625 Z M 5.1875 0.265625 "/></g></g></g></svg>